<svg width="148" height="74" viewBox="0 0 148 74" fill="none" xmlns="http://www.w3.org/2000/svg">
<path d="M6.41 59.192C4.106 59.192 2.57 58.776 1.802 57.944C1.034 57.112 1.034 56.28 1.802 55.448C2.57 54.616 4.106 54.2 6.41 54.2C5.258 54.2 4.33 53.72 3.626 52.76C2.922 51.736 2.442 50.488 2.186 49.016C1.994 47.544 1.994 46.072 2.186 44.6C2.442 43.064 2.922 41.816 3.626 40.856C4.33 39.832 5.258 39.32 6.41 39.32C4.81 39.32 3.594 38.808 2.762 37.784C1.93 36.696 1.514 35.48 1.514 34.136C1.514 32.792 1.93 31.608 2.762 30.584C3.594 29.496 4.81 28.952 6.41 28.952C4.234 28.952 2.762 28.536 1.994 27.704C1.29 26.872 1.29 26.04 1.994 25.208C2.762 24.376 4.234 23.96 6.41 23.96C4.17 23.96 2.666 23.64 1.898 23C1.194 22.36 1.194 21.752 1.898 21.176C2.666 20.536 4.17 20.216 6.41 20.216C4.17 20.216 2.666 19.832 1.898 19.064C1.194 18.296 1.194 17.528 1.898 16.76C2.666 15.992 4.17 15.608 6.41 15.608C4.362 15.608 2.986 15.128 2.282 14.168C1.642 13.208 1.642 12.248 2.282 11.288C2.986 10.328 4.362 9.848 6.41 9.848C5.386 8.376 5.098 7.128 5.546 6.10399C5.994 5.08 6.762 4.568 7.85 4.568C9.002 4.504 10.09 5.208 11.114 6.68C11.114 4.184 11.594 2.552 12.554 1.784C13.514 0.951998 14.474 0.951998 15.434 1.784C16.394 2.552 16.874 4.184 16.874 6.68C16.874 4.824 17.322 3.44799 18.218 2.55199C19.114 1.65599 20.138 1.20799 21.29 1.20799C22.442 1.20799 23.466 1.65599 24.362 2.55199C25.258 3.44799 25.706 4.824 25.706 6.68C25.706 5.144 26.122 4.024 26.954 3.32C27.85 2.552 28.842 2.168 29.93 2.168C31.018 2.168 31.978 2.552 32.81 3.32C33.706 4.024 34.154 5.144 34.154 6.68C34.346 5.208 35.114 4.184 36.458 3.608C37.866 3.032 39.402 2.872 41.066 3.128C42.73 3.32 44.138 3.86399 45.29 4.75999C46.442 5.65599 46.922 6.83999 46.73 8.31199C47.69 6.008 48.682 4.632 49.706 4.184C50.73 3.736 51.434 4.056 51.818 5.144C52.202 6.168 51.946 7.832 51.05 10.136C51.882 9.304 52.906 9.144 54.122 9.65599C55.402 10.104 56.586 10.904 57.674 12.056C58.826 13.208 59.594 14.424 59.978 15.704C60.426 16.984 60.234 18.04 59.402 18.872C61.066 18.488 62.378 18.584 63.338 19.16C64.362 19.672 64.97 20.408 65.162 21.368C65.418 22.264 65.194 23.16 64.49 24.056C63.85 24.952 62.698 25.592 61.034 25.976C62.186 26.296 62.89 27.16 63.146 28.568C63.402 29.912 63.306 31.416 62.858 33.08C62.41 34.68 61.706 36.024 60.746 37.112C59.85 38.136 58.826 38.488 57.674 38.168C58.89 39.576 59.274 40.952 58.826 42.296C58.442 43.64 57.706 44.632 56.618 45.272C57.002 46.232 56.234 47.096 54.314 47.864C55.53 47.928 56.618 48.408 57.578 49.304C58.538 50.2 59.242 51.288 59.69 52.568C60.138 53.784 60.202 55 59.882 56.216C59.562 57.432 58.762 58.424 57.482 59.192C59.402 58.104 60.874 57.656 61.898 57.848C62.986 57.976 63.434 58.488 63.242 59.384C63.05 60.216 62.122 61.176 60.458 62.264C61.93 61.496 63.146 61.432 64.106 62.072C65.066 62.648 65.514 63.544 65.45 64.76C65.45 65.912 64.682 67.032 63.146 68.12C63.146 69.4 62.666 70.424 61.706 71.192C60.81 71.96 59.69 72.472 58.346 72.728C57.002 72.984 55.658 72.984 54.314 72.728C52.97 72.472 51.818 71.96 50.858 71.192C49.962 70.424 49.514 69.4 49.514 68.12C48.938 69.4 48.074 70.168 46.922 70.424C45.77 70.616 44.618 70.456 43.466 69.944C42.314 69.432 41.45 68.664 40.874 67.64C40.298 66.552 40.298 65.4 40.874 64.184C39.658 64.696 38.538 64.76 37.514 64.376C36.554 63.928 35.818 63.224 35.306 62.264C34.794 61.304 34.602 60.312 34.73 59.288C34.922 58.2 35.53 57.304 36.554 56.6C35.274 57.176 33.962 57.016 32.618 56.12C31.338 55.224 30.41 54.072 29.834 52.664C29.386 52.92 28.874 53.048 28.298 53.048C28.618 54.2 28.458 55.352 27.818 56.504C27.242 57.592 26.186 58.136 24.65 58.136C25.93 58.136 26.89 58.488 27.53 59.192C28.17 59.896 28.49 60.696 28.49 61.592C28.49 62.488 28.17 63.288 27.53 63.992C26.89 64.632 25.93 64.952 24.65 64.952C25.61 66.232 25.93 67.352 25.61 68.312C25.29 69.208 24.618 69.72 23.594 69.848C22.634 69.912 21.674 69.336 20.714 68.12C20.714 69.656 20.202 70.84 19.178 71.672C18.218 72.504 17.002 72.92 15.53 72.92C14.122 72.984 12.714 72.536 11.306 71.576C9.898 70.68 8.714 69.24 7.754 67.256C6.794 65.208 6.346 62.52 6.41 59.192ZM24.65 28.664C25.93 28.664 26.826 29.144 27.338 30.104C27.914 31 28.17 31.864 28.106 32.696C29.13 31.928 30.506 31.544 32.234 31.544C33.962 31.48 35.306 31.8 36.266 32.504C36.202 31.416 36.554 30.232 37.322 28.952C38.09 27.608 38.954 26.744 39.914 26.36C39.082 26.04 38.858 25.56 39.242 24.92C38.026 25.24 37.034 24.952 36.266 24.056C35.562 23.16 35.466 22.136 35.978 20.984C35.21 21.368 34.25 21.56 33.098 21.56C32.01 21.56 30.986 21.4 30.026 21.08C29.066 20.696 28.458 20.152 28.202 19.448C28.33 20.728 27.946 21.496 27.05 21.752C27.114 22.392 26.954 23 26.57 23.576C26.186 24.152 25.546 24.44 24.65 24.44C25.866 24.44 26.666 24.792 27.05 25.496C27.498 26.2 27.498 26.904 27.05 27.608C26.666 28.312 25.866 28.664 24.65 28.664ZM75.6913 55.736C73.7713 55.736 72.3313 55.128 71.3713 53.912C70.4753 52.696 70.0273 51.288 70.0273 49.688C70.0273 48.024 70.4753 46.584 71.3713 45.368C72.3313 44.152 73.7713 43.544 75.6913 43.544C74.5393 43.544 73.6113 43.064 72.9073 42.104C72.2033 41.144 71.7233 39.96 71.4673 38.552C71.2113 37.144 71.2113 35.736 71.4673 34.328C71.7233 32.92 72.2033 31.736 72.9073 30.776C73.6113 29.816 74.5393 29.336 75.6913 29.336C73.8353 29.336 72.4273 28.728 71.4673 27.512C70.5713 26.232 70.1233 24.76 70.1233 23.096C70.1233 21.368 70.5713 19.896 71.4673 18.68C72.4273 17.4 73.8353 16.76 75.6913 16.76C73.2593 16.76 71.6273 16.28 70.7953 15.32C70.0273 14.36 70.0273 13.4 70.7953 12.44C71.6273 11.48 73.2593 11 75.6913 11C73.7073 11 72.3633 10.616 71.6593 9.848C71.0193 9.08 71.0193 8.312 71.6593 7.544C72.3633 6.776 73.7073 6.392 75.6913 6.392C75.7553 4.856 76.2993 3.736 77.3233 3.032C78.3473 2.264 79.4993 1.912 80.7793 1.976C82.1233 1.976 83.2753 2.392 84.2353 3.224C85.1953 3.992 85.6753 5.144 85.6753 6.68C86.1233 5.592 86.8273 4.952 87.7873 4.75999C88.8113 4.504 89.8353 4.6 90.8593 5.048C91.8833 5.432 92.6513 6.07199 93.1633 6.96799C93.7393 7.8 93.8033 8.76 93.3553 9.848C94.8273 9.016 96.1393 8.792 97.2913 9.17599C98.5073 9.49599 99.4353 10.168 100.075 11.192C100.715 12.216 100.907 13.336 100.651 14.552C100.395 15.768 99.5633 16.824 98.1553 17.72C100.011 16.568 101.419 16.12 102.379 16.376C103.403 16.568 103.787 17.144 103.531 18.104C103.275 19.064 102.187 20.12 100.267 21.272C101.995 20.248 103.467 20.024 104.683 20.6C105.963 21.176 106.763 22.104 107.083 23.384C107.403 24.664 106.987 25.912 105.835 27.128C106.795 26.552 107.787 26.456 108.811 26.84C109.387 25.88 110.187 25.208 111.211 24.824C112.299 24.376 113.419 24.504 114.571 25.208C113.099 24.312 112.203 23.32 111.883 22.232C111.563 21.144 111.659 20.184 112.171 19.352C112.747 18.456 113.579 17.912 114.667 17.72C115.819 17.528 117.099 17.848 118.507 18.68C117.035 17.784 116.107 16.824 115.723 15.8C115.403 14.776 115.467 13.88 115.915 13.112C116.363 12.344 117.131 11.896 118.219 11.768C119.307 11.576 120.587 11.928 122.059 12.824C120.587 11.864 119.659 10.84 119.275 9.752C118.891 8.664 118.955 7.736 119.467 6.96799C119.979 6.2 120.779 5.752 121.867 5.62399C123.019 5.496 124.363 5.912 125.899 6.872C125.835 5.336 126.283 4.184 127.243 3.41599C128.203 2.584 129.291 2.168 130.507 2.168C131.787 2.104 132.907 2.456 133.867 3.224C134.827 3.992 135.339 5.144 135.403 6.68C135.979 5.592 136.715 4.952 137.611 4.75999C138.507 4.504 139.339 4.6 140.107 5.048C140.939 5.432 141.515 6.07199 141.835 6.96799C142.219 7.8 142.123 8.76 141.547 9.848C143.915 9.848 145.483 10.328 146.251 11.288C147.019 12.248 147.019 13.208 146.251 14.168C145.483 15.128 143.915 15.608 141.547 15.608C143.787 15.608 145.259 16.056 145.963 16.952C146.731 17.848 146.731 18.744 145.963 19.64C145.259 20.536 143.787 20.984 141.547 20.984C143.467 20.984 144.747 21.496 145.387 22.52C146.027 23.48 146.027 24.472 145.387 25.496C144.747 26.52 143.467 27.032 141.547 27.032C142.955 27.032 144.075 27.512 144.907 28.472C145.803 29.432 146.379 30.616 146.635 32.024C146.955 33.432 146.955 34.84 146.635 36.248C146.379 37.656 145.803 38.84 144.907 39.8C144.075 40.76 142.955 41.24 141.547 41.24C143.083 41.24 144.235 41.592 145.003 42.296C145.771 43 146.155 43.8 146.155 44.696C146.155 45.592 145.771 46.392 145.003 47.096C144.235 47.8 143.083 48.152 141.547 48.152C142.955 48.152 144.075 48.664 144.907 49.688C145.739 50.648 146.283 51.864 146.539 53.336C146.859 54.808 146.859 56.312 146.539 57.848C146.283 59.32 145.739 60.568 144.907 61.592C144.075 62.552 142.955 63.032 141.547 63.032C144.043 63.032 145.707 63.352 146.539 63.992C147.371 64.632 147.371 65.272 146.539 65.912C145.707 66.552 144.043 66.872 141.547 66.872C141.739 68.536 141.387 69.848 140.491 70.808C139.595 71.768 138.475 72.312 137.131 72.44C135.851 72.632 134.667 72.376 133.579 71.672C132.491 70.968 131.851 69.784 131.659 68.12C131.147 69.464 130.411 70.328 129.451 70.712C128.491 71.096 127.531 71.096 126.571 70.712C125.675 70.328 125.003 69.688 124.555 68.792C124.171 67.832 124.235 66.68 124.747 65.336C122.315 65.336 120.683 64.952 119.851 64.184C119.083 63.416 119.083 62.68 119.851 61.976C120.683 61.208 122.315 60.824 124.747 60.824C122.955 60.824 121.579 60.216 120.619 59C119.723 57.72 119.211 56.248 119.083 54.584C119.019 52.92 119.371 51.416 120.139 50.072C120.907 48.664 122.123 47.832 123.787 47.576C122.379 47.576 121.419 47.032 120.907 45.944C120.267 46.2 119.755 46.008 119.371 45.368C118.603 45.24 117.803 44.92 116.971 44.408C118.059 45.176 118.571 46.136 118.507 47.288C118.507 48.44 118.155 49.528 117.451 50.552C116.747 51.512 115.851 52.184 114.763 52.568C113.739 52.952 112.683 52.76 111.595 51.992C110.955 53.08 109.963 53.624 108.619 53.624C107.275 53.56 105.899 53.144 104.491 52.376C103.147 51.544 102.091 50.584 101.323 49.496C100.619 48.344 100.587 47.192 101.227 46.04C100.715 46.36 100.203 46.616 99.6913 46.808C99.3073 47.704 98.7313 48.472 97.9633 49.112C97.1953 49.752 96.3633 50.104 95.4673 50.168C96.4273 50.808 96.9393 51.672 97.0033 52.76C97.1313 53.848 96.8113 54.84 96.0433 55.736C95.2753 56.568 94.0913 56.984 92.4913 56.984C94.6033 56.984 96.0113 57.432 96.7153 58.328C97.4193 59.224 97.4193 60.12 96.7153 61.016C96.0113 61.848 94.6033 62.264 92.4913 62.264C94.5393 62.84 95.7553 63.736 96.1393 64.952C96.5873 66.104 96.3313 67.064 95.3713 67.832C94.4753 68.6 92.9713 68.696 90.8593 68.12C90.8593 69.784 90.3473 71.032 89.3233 71.864C88.2993 72.696 87.1153 73.112 85.7713 73.112C84.4273 73.112 83.2433 72.696 82.2193 71.864C81.1953 71.032 80.6833 69.784 80.6833 68.12C80.6833 69.976 80.4273 71.288 79.9153 72.056C79.4033 72.888 78.7953 72.92 78.0913 72.152C77.3873 71.448 76.7793 69.784 76.2673 67.16C75.8193 64.536 75.6273 60.728 75.6913 55.736Z" fill="white"/>
</svg>
