<svg width="180" height="91" viewBox="0 0 180 91" fill="none" xmlns="http://www.w3.org/2000/svg">
<path d="M24.5355 88.208C24.5355 89.5733 20.4822 90.256 12.3755 90.256C4.1835 90.256 0.0875001 89.616 0.0875001 88.336V4.88C0.0875001 1.89333 1.66617 0.399994 4.8235 0.399994H29.2715C51.7142 0.399994 62.9355 9.14666 62.9355 26.64C62.9355 31.9307 61.9115 36.752 59.8635 41.104C57.8155 45.3707 54.9142 48.784 51.1595 51.344L67.2875 78.224C66.6048 80.272 64.3862 82.6187 60.6315 85.264C55.5115 88.9333 51.2875 90.768 47.9595 90.768C44.6315 90.768 42.1568 89.5733 40.5355 87.184L28.5035 59.152H24.5355V88.208ZM24.5355 23.056V42.256H25.1755C33.2822 42.256 37.3355 38.8853 37.3355 32.144C37.3355 29.072 36.5248 26.8107 34.9035 25.36C33.3675 23.824 30.8075 23.056 27.2235 23.056H24.5355ZM165.188 90.128C157.593 90.128 153.796 89.2747 153.796 87.568L151.108 36.24L135.492 88.208C135.15 89.232 132.249 89.744 126.788 89.744C121.326 89.744 118.51 89.2747 118.34 88.336L102.212 35.728L100.42 86.8C100.334 88.08 98.7128 88.976 95.5555 89.488C92.3982 89.9147 89.7528 90.128 87.6195 90.128C85.5715 90.128 83.5662 90 81.6035 89.744C77.5075 89.1467 75.5022 88.08 75.5875 86.544L78.5315 3.34399C78.5315 1.296 83.7368 0.271996 94.1475 0.271996C97.2195 0.271996 100.974 0.527995 105.412 1.03999C109.849 1.46666 112.324 2.36266 112.836 3.728L127.172 44.048L139.715 3.6C140.484 1.38133 146.372 0.271996 157.38 0.271996C160.537 0.271996 164.292 0.527995 168.644 1.03999C173.081 1.46666 175.3 2.27733 175.3 3.47199L179.012 87.44C179.012 88.3787 177.348 89.0613 174.02 89.488C170.692 89.9147 167.748 90.128 165.188 90.128Z" fill="white"/>
</svg>
