<svg width="69" height="72" viewBox="0 0 69 72" fill="none" xmlns="http://www.w3.org/2000/svg">
<path d="M68.375 70H64.25L57.625 60.8125C56 62.2708 54.2708 63.6458 52.4375 64.9375C50.6458 66.1875 48.75 67.2917 46.75 68.25C44.75 69.1667 42.6875 69.8958 40.5625 70.4375C38.4792 70.9792 36.3542 71.25 34.1875 71.25C29.4792 71.25 25.0417 70.4583 20.875 68.875C16.75 67.2917 13.125 65 10 62C6.91667 58.9583 4.47917 55.25 2.6875 50.875C0.895833 46.5 0 41.5208 0 35.9375C0 30.7292 0.895833 25.9583 2.6875 21.625C4.47917 17.25 6.91667 13.5 10 10.375C13.125 7.25 16.75 4.83333 20.875 3.125C25.0417 1.375 29.4792 0.5 34.1875 0.5C36.3542 0.5 38.5 0.770833 40.625 1.3125C42.75 1.85417 44.8125 2.60417 46.8125 3.5625C48.8125 4.52083 50.7083 5.64583 52.5 6.9375C54.3333 8.22917 56.0417 9.625 57.625 11.125L64.25 3.1875H68.375V70ZM51.1875 35.9375C51.1875 33.6042 50.7292 31.3542 49.8125 29.1875C48.9375 26.9792 47.7292 25.0417 46.1875 23.375C44.6458 21.6667 42.8333 20.3125 40.75 19.3125C38.7083 18.2708 36.5208 17.75 34.1875 17.75C31.8542 17.75 29.6458 18.1458 27.5625 18.9375C25.5208 19.7292 23.7292 20.8958 22.1875 22.4375C20.6875 23.9792 19.5 25.8958 18.625 28.1875C17.75 30.4375 17.3125 33.0208 17.3125 35.9375C17.3125 38.8542 17.75 41.4583 18.625 43.75C19.5 46 20.6875 47.8958 22.1875 49.4375C23.7292 50.9792 25.5208 52.1458 27.5625 52.9375C29.6458 53.7292 31.8542 54.125 34.1875 54.125C36.5208 54.125 38.7083 53.625 40.75 52.625C42.8333 51.5833 44.6458 50.2292 46.1875 48.5625C47.7292 46.8542 48.9375 44.9167 49.8125 42.75C50.7292 40.5417 51.1875 38.2708 51.1875 35.9375Z" fill="white"/>
</svg>
