<svg width="280" height="280" viewBox="0 0 280 280" fill="none" xmlns="http://www.w3.org/2000/svg">
<path d="M128.333 47L128.333 207C128.333 212.782 120.152 213.951 118.534 208.4L71.8668 48.4C70.9335 45.2 73.3335 42 76.6668 42H123.333C126.095 42 128.333 44.2386 128.333 47Z" fill="white"/>
<path d="M233.333 47L233.333 207C233.333 212.782 225.152 213.951 223.534 208.4L176.867 48.4C175.933 45.2 178.333 42 181.667 42H228.333C231.095 42 233.333 44.2386 233.333 47Z" fill="white"/>
<path d="M46.6665 237V77C46.6665 71.218 54.8475 70.0493 56.4665 75.6L103.133 235.6C104.067 238.8 101.667 242 98.3332 242H51.6665C48.9051 242 46.6665 239.761 46.6665 237Z" fill="white"/>
<path d="M151.667 237V77C151.667 71.218 159.848 70.0493 161.466 75.6L208.133 235.6C209.067 238.8 206.667 242 203.333 242H156.667C153.905 242 151.667 239.761 151.667 237Z" fill="white"/>
<path fill-rule="evenodd" clip-rule="evenodd" d="M10 0C4.47715 0 0 4.47715 0 10V270C0 275.523 4.47715 280 10 280H270C275.523 280 280 275.523 280 270V10C280 4.47715 275.523 0 270 0H10ZM28.3333 22C25.5719 22 23.3333 24.2386 23.3333 27V257C23.3333 259.761 25.5719 262 28.3333 262H251.667C254.428 262 256.667 259.761 256.667 257V27C256.667 24.2386 254.428 22 251.667 22H28.3333Z" fill="white"/>
</svg>